<mxfile host="app.diagrams.net" modified="2024-07-02T12:06:45.351Z" agent="Mozilla/5.0 (Windows NT 10.0; Win64; x64) AppleWebKit/537.36 (KHTML, like Gecko) Chrome/126.0.0.0 Safari/537.36" version="24.6.4" etag="Qb3YqJRtmrzgHmRx1wlt" type="github">
  <diagram name="第 1 页" id="JgHq7y9aVb64UPS6liGF">
    <mxGraphModel>
      <root>
        <mxCell id="0" />
        <mxCell id="1" parent="0" />
      </root>
    </mxGraphModel>
  </diagram>
</mxfile>
